<?xml version="1.0" standalone="no"?>
<svg xmlns:xlink="http://www.w3.org/1999/xlink" id="wave" style="transform:rotate(0deg); transition: 0.3s" viewBox="0 0 1440 450" version="1.1" xmlns="http://www.w3.org/2000/svg"><defs><linearGradient id="sw-gradient-0" x1="0" x2="0" y1="1" y2="0"><stop stop-color="rgba(243, 106, 62, 1)" offset="0%"/><stop stop-color="rgba(255, 179, 11, 1)" offset="100%"/></linearGradient></defs><path style="transform:translate(0, 0px); opacity:1" fill="url(#sw-gradient-0)" d="M0,0L48,7.5C96,15,192,30,288,75C384,120,480,195,576,247.5C672,300,768,330,864,307.5C960,285,1056,210,1152,180C1248,150,1344,165,1440,210C1536,255,1632,330,1728,330C1824,330,1920,255,2016,255C2112,255,2208,330,2304,360C2400,390,2496,375,2592,307.5C2688,240,2784,120,2880,112.5C2976,105,3072,210,3168,262.5C3264,315,3360,315,3456,262.5C3552,210,3648,105,3744,105C3840,105,3936,210,4032,232.5C4128,255,4224,195,4320,157.5C4416,120,4512,105,4608,150C4704,195,4800,300,4896,330C4992,360,5088,315,5184,262.5C5280,210,5376,150,5472,157.5C5568,165,5664,240,5760,270C5856,300,5952,285,6048,262.5C6144,240,6240,210,6336,217.5C6432,225,6528,270,6624,240C6720,210,6816,105,6864,52.5L6912,0L6912,450L6864,450C6816,450,6720,450,6624,450C6528,450,6432,450,6336,450C6240,450,6144,450,6048,450C5952,450,5856,450,5760,450C5664,450,5568,450,5472,450C5376,450,5280,450,5184,450C5088,450,4992,450,4896,450C4800,450,4704,450,4608,450C4512,450,4416,450,4320,450C4224,450,4128,450,4032,450C3936,450,3840,450,3744,450C3648,450,3552,450,3456,450C3360,450,3264,450,3168,450C3072,450,2976,450,2880,450C2784,450,2688,450,2592,450C2496,450,2400,450,2304,450C2208,450,2112,450,2016,450C1920,450,1824,450,1728,450C1632,450,1536,450,1440,450C1344,450,1248,450,1152,450C1056,450,960,450,864,450C768,450,672,450,576,450C480,450,384,450,288,450C192,450,96,450,48,450L0,450Z"/></svg>